Output #0, mpeg, to '02.mpg':
    Stream #0:0: Video: mpeg1video, yuv420p, 640x480, q=2-31, 400 kb/s, 25 tbn
[mpeg @ 0x55557d1126f0] VBV buffer size not set, using default size of 230KB
If you want the mpeg file to be compliant to some specification
Like DVD, VCD or others, make sure you set the correct buffer size
pts:0 pts_time:0 dts:-3600 dts_time:-0.04 duration:0 duration_time:0 stream_index:0
pts:3600 pts_time:0.04 dts:0 dts_time:0 duration:0 duration_time:0 stream_index:0
pts:7200 pts_time:0.08 dts:3600 dts_time:0.04 duration:0 duration_time:0 stream_index:0
pts:10800 pts_time:0.12 dts:7200 dts_time:0.08 duration:0 duration_time:0 stream_index:0
pts:14400 pts_time:0.16 dts:10800 dts_time:0.12 duration:0 duration_time:0 stream_index:0
pts:18000 pts_time:0.2 dts:14400 dts_time:0.16 duration:0 duration_time:0 stream_index:0
pts:21600 pts_time:0.24 dts:18000 dts_time:0.2 duration:0 duration_time:0 stream_index:0
pts:25200 pts_time:0.28 dts:21600 dts_time:0.24 duration:0 duration_time:0 stream_index:0
pts:28800 pts_time:0.32 dts:25200 dts_time:0.28 duration:0 duration_time:0 stream_index:0
pts:32400 pts_time:0.36 dts:28800 dts_time:0.32 duration:0 duration_time:0 stream_index:0
pts:36000 pts_time:0.4 dts:32400 dts_time:0.36 duration:0 duration_time:0 stream_index:0
[mpeg @ 0x55557d1126f0] buffer underflow st=0 bufi=5066 size=6446
pts:39600 pts_time:0.44 dts:36000 dts_time:0.4 duration:0 duration_time:0 stream_index:0
[mpeg @ 0x55557d1126f0] buffer underflow st=0 bufi=652 size=10326
[mpeg @ 0x55557d1126f0] buffer underflow st=0 bufi=2693 size=10326
[mpeg @ 0x55557d1126f0] buffer underflow st=0 bufi=4734 size=10326
[mpeg @ 0x55557d1126f0] buffer underflow st=0 bufi=6775 size=10326
[mpeg @ 0x55557d1126f0] buffer underflow st=0 bufi=8816 size=10326
pts:43200 pts_time:0.48 dts:39600 dts_time:0.44 duration:0 duration_time:0 stream_index:0
[mpeg @ 0x55557d1126f0] buffer underflow st=0 bufi=522 size=685
pts:46800 pts_time:0.52 dts:43200 dts_time:0.48 duration:0 duration_time:0 stream_index:0
[mpeg @ 0x55557d1126f0] buffer underflow st=0 bufi=1869 size=2316
pts:50400 pts_time:0.56 dts:46800 dts_time:0.52 duration:0 duration_time:0 stream_index:0
[mpeg @ 0x55557d1126f0] buffer underflow st=0 bufi=1585 size=1682
pts:54000 pts_time:0.6 dts:50400 dts_time:0.56 duration:0 duration_time:0 stream_index:0
[mpeg @ 0x55557d1126f0] buffer underflow st=0 bufi=1935 size=6406
[mpeg @ 0x55557d1126f0] buffer underflow st=0 bufi=3976 size=6406
[mpeg @ 0x55557d1126f0] buffer underflow st=0 bufi=6017 size=6406
pts:57600 pts_time:0.64 dts:54000 dts_time:0.6 duration:0 duration_time:0 stream_index:0
pts:61200 pts_time:0.68 dts:57600 dts_time:0.64 duration:0 duration_time:0 stream_index:0
[mpeg @ 0x55557d1126f0] buffer underflow st=0 bufi=30 size=2162
[mpeg @ 0x55557d1126f0] buffer underflow st=0 bufi=2071 size=2162
pts:64800 pts_time:0.72 dts:61200 dts_time:0.68 duration:0 duration_time:0 stream_index:0
pts:68400 pts_time:0.76 dts:64800 dts_time:0.72 duration:0 duration_time:0 stream_index:0
[mpeg @ 0x55557d1126f0] buffer underflow st=0 bufi=295 size=1730
pts:72000 pts_time:0.8 dts:68400 dts_time:0.76 duration:0 duration_time:0 stream_index:0
[mpeg @ 0x55557d1126f0] buffer underflow st=0 bufi=597 size=3730
[mpeg @ 0x55557d1126f0] buffer underflow st=0 bufi=2638 size=3730
pts:75600 pts_time:0.84 dts:72000 dts_time:0.8 duration:0 duration_time:0 stream_index:0
[mpeg @ 0x55557d1126f0] buffer underflow st=0 bufi=940 size=4552
[mpeg @ 0x55557d1126f0] buffer underflow st=0 bufi=2981 size=4552
pts:79200 pts_time:0.88 dts:75600 dts_time:0.84 duration:0 duration_time:0 stream_index:0
[mpeg @ 0x55557d1126f0] buffer underflow st=0 bufi=461 size=5207
[mpeg @ 0x55557d1126f0] buffer underflow st=0 bufi=2502 size=5207
[mpeg @ 0x55557d1126f0] buffer underflow st=0 bufi=4543 size=5207
pts:82800 pts_time:0.92 dts:79200 dts_time:0.88 duration:0 duration_time:0 stream_index:0
[mpeg @ 0x55557d1126f0] buffer underflow st=0 bufi=1368 size=10093
[mpeg @ 0x55557d1126f0] buffer underflow st=0 bufi=3409 size=10093
[mpeg @ 0x55557d1126f0] buffer underflow st=0 bufi=5450 size=10093
[mpeg @ 0x55557d1126f0] buffer underflow st=0 bufi=7491 size=10093
[mpeg @ 0x55557d1126f0] buffer underflow st=0 bufi=9532 size=10093
pts:86400 pts_time:0.96 dts:82800 dts_time:0.92 duration:0 duration_time:0 stream_index:0
pts:90000 pts_time:1 dts:86400 dts_time:0.96 duration:0 duration_time:0 stream_index:0
pts:93600 pts_time:1.04 dts:90000 dts_time:1 duration:0 duration_time:0 stream_index:0
[mpeg @ 0x55557d1126f0] buffer underflow st=0 bufi=7 size=2258
[mpeg @ 0x55557d1126f0] buffer underflow st=0 bufi=2036 size=2258
pts:97200 pts_time:1.08 dts:93600 dts_time:1.04 duration:0 duration_time:0 stream_index:0
pts:100800 pts_time:1.12 dts:97200 dts_time:1.08 duration:0 duration_time:0 stream_index:0
[mpeg @ 0x55557d1126f0] buffer underflow st=0 bufi=326 size=1367
pts:104400 pts_time:1.16 dts:100800 dts_time:1.12 duration:0 duration_time:0 stream_index:0
[mpeg @ 0x55557d1126f0] buffer underflow st=0 bufi=991 size=4774
[mpeg @ 0x55557d1126f0] buffer underflow st=0 bufi=3032 size=4774
pts:108000 pts_time:1.2 dts:104400 dts_time:1.16 duration:0 duration_time:0 stream_index:0
[mpeg @ 0x55557d1126f0] buffer underflow st=0 bufi=290 size=1739
pts:111600 pts_time:1.24 dts:108000 dts_time:1.2 duration:0 duration_time:0 stream_index:0
[mpeg @ 0x55557d1126f0] buffer underflow st=0 bufi=583 size=1320
pts:115200 pts_time:1.28 dts:111600 dts_time:1.24 duration:0 duration_time:0 stream_index:0
[mpeg @ 0x55557d1126f0] buffer underflow st=0 bufi=1295 size=1398
pts:118800 pts_time:1.32 dts:115200 dts_time:1.28 duration:0 duration_time:0 stream_index:0
pts:122400 pts_time:1.36 dts:118800 dts_time:1.32 duration:0 duration_time:0 stream_index:0
[mpeg @ 0x55557d1126f0] buffer underflow st=0 bufi=18 size=1446
pts:126000 pts_time:1.4 dts:122400 dts_time:1.36 duration:0 duration_time:0 stream_index:0
[mpeg @ 0x55557d1126f0] buffer underflow st=0 bufi=604 size=13619
[mpeg @ 0x55557d1126f0] buffer underflow st=0 bufi=2645 size=13619
[mpeg @ 0x55557d1126f0] buffer underflow st=0 bufi=4686 size=13619
[mpeg @ 0x55557d1126f0] buffer underflow st=0 bufi=6727 size=13619
[mpeg @ 0x55557d1126f0] buffer underflow st=0 bufi=8768 size=13619
[mpeg @ 0x55557d1126f0] buffer underflow st=0 bufi=10809 size=13619
[mpeg @ 0x55557d1126f0] buffer underflow st=0 bufi=12850 size=13619
pts:129600 pts_time:1.44 dts:126000 dts_time:1.4 duration:0 duration_time:0 stream_index:0
pts:133200 pts_time:1.48 dts:129600 dts_time:1.44 duration:0 duration_time:0 stream_index:0
[mpeg @ 0x55557d1126f0] buffer underflow st=0 bufi=862 size=6549
[mpeg @ 0x55557d1126f0] buffer underflow st=0 bufi=2903 size=6549
[mpeg @ 0x55557d1126f0] buffer underflow st=0 bufi=4944 size=6549
pts:136800 pts_time:1.52 dts:133200 dts_time:1.48 duration:0 duration_time:0 stream_index:0
[mpeg @ 0x55557d1126f0] buffer underflow st=0 bufi=427 size=4304
[mpeg @ 0x55557d1126f0] buffer underflow st=0 bufi=2468 size=4304
pts:140400 pts_time:1.56 dts:136800 dts_time:1.52 duration:0 duration_time:0 stream_index:0
[mpeg @ 0x55557d1126f0] buffer underflow st=0 bufi=196 size=1130
pts:144000 pts_time:1.6 dts:140400 dts_time:1.56 duration:0 duration_time:0 stream_index:0
pts:147600 pts_time:1.64 dts:144000 dts_time:1.6 duration:0 duration_time:0 stream_index:0
[mpeg @ 0x55557d1126f0] buffer underflow st=0 bufi=614 size=1771
pts:151200 pts_time:1.68 dts:147600 dts_time:1.64 duration:0 duration_time:0 stream_index:0
[mpeg @ 0x55557d1126f0] buffer underflow st=0 bufi=875 size=1753
pts:154800 pts_time:1.72 dts:151200 dts_time:1.68 duration:0 duration_time:0 stream_index:0
[mpeg @ 0x55557d1126f0] buffer underflow st=0 bufi=1154 size=1375
pts:158400 pts_time:1.76 dts:154800 dts_time:1.72 duration:0 duration_time:0 stream_index:0
pts:162000 pts_time:1.8 dts:158400 dts_time:1.76 duration:0 duration_time:0 stream_index:0
[mpeg @ 0x55557d1126f0] buffer underflow st=0 bufi=424 size=635
pts:165600 pts_time:1.84 dts:162000 dts_time:1.8 duration:0 duration_time:0 stream_index:0
[mpeg @ 0x55557d1126f0] buffer underflow st=0 bufi=1821 size=6327
[mpeg @ 0x55557d1126f0] buffer underflow st=0 bufi=3862 size=6327
[mpeg @ 0x55557d1126f0] buffer underflow st=0 bufi=5903 size=6327
pts:169200 pts_time:1.88 dts:165600 dts_time:1.84 duration:0 duration_time:0 stream_index:0
[mpeg @ 0x55557d1126f0] buffer underflow st=0 bufi=1608 size=13347
[mpeg @ 0x55557d1126f0] buffer underflow st=0 bufi=3649 size=13347
[mpeg @ 0x55557d1126f0] buffer underflow st=0 bufi=5690 size=13347
[mpeg @ 0x55557d1126f0] buffer underflow st=0 bufi=7731 size=13347
[mpeg @ 0x55557d1126f0] buffer underflow st=0 bufi=9772 size=13347
[mpeg @ 0x55557d1126f0] buffer underflow st=0 bufi=11813 size=13347
pts:172800 pts_time:1.92 dts:169200 dts_time:1.88 duration:0 duration_time:0 stream_index:0
[mpeg @ 0x55557d1126f0] buffer underflow st=0 bufi=498 size=1446
pts:176400 pts_time:1.96 dts:172800 dts_time:1.92 duration:0 duration_time:0 stream_index:0
pts:180000 pts_time:2 dts:176400 dts_time:1.96 duration:0 duration_time:0 stream_index:0
[mpeg @ 0x55557d1126f0] buffer underflow st=0 bufi=412 size=643
pts:183600 pts_time:2.04 dts:180000 dts_time:2 duration:0 duration_time:0 stream_index:0
pts:187200 pts_time:2.08 dts:183600 dts_time:2.04 duration:0 duration_time:0 stream_index:0
[mpeg @ 0x55557d1126f0] buffer underflow st=0 bufi=946 size=3040
[mpeg @ 0x55557d1126f0] buffer underflow st=0 bufi=2987 size=3040
pts:190800 pts_time:2.12 dts:187200 dts_time:2.08 duration:0 duration_time:0 stream_index:0
pts:194400 pts_time:2.16 dts:190800 dts_time:2.12 duration:0 duration_time:0 stream_index:0
pts:198000 pts_time:2.2 dts:194400 dts_time:2.16 duration:0 duration_time:0 stream_index:0
[mpeg @ 0x55557d1126f0] buffer underflow st=0 bufi=1553 size=7146
[mpeg @ 0x55557d1126f0] buffer underflow st=0 bufi=3594 size=7146
[mpeg @ 0x55557d1126f0] buffer underflow st=0 bufi=5635 size=7146
pts:201600 pts_time:2.24 dts:198000 dts_time:2.2 duration:0 duration_time:0 stream_index:0
[mpeg @ 0x55557d1126f0] buffer underflow st=0 bufi=521 size=5077
[mpeg @ 0x55557d1126f0] buffer underflow st=0 bufi=2562 size=5077
[mpeg @ 0x55557d1126f0] buffer underflow st=0 bufi=4603 size=5077
pts:205200 pts_time:2.28 dts:201600 dts_time:2.24 duration:0 duration_time:0 stream_index:0
pts:208800 pts_time:2.32 dts:205200 dts_time:2.28 duration:0 duration_time:0 stream_index:0
pts:212400 pts_time:2.36 dts:208800 dts_time:2.32 duration:0 duration_time:0 stream_index:0
[mpeg @ 0x55557d1126f0] buffer underflow st=0 bufi=310 size=12509
[mpeg @ 0x55557d1126f0] buffer underflow st=0 bufi=2351 size=12509
[mpeg @ 0x55557d1126f0] buffer underflow st=0 bufi=4392 size=12509
[mpeg @ 0x55557d1126f0] buffer underflow st=0 bufi=6433 size=12509
[mpeg @ 0x55557d1126f0] buffer underflow st=0 bufi=8474 size=12509
[mpeg @ 0x55557d1126f0] buffer underflow st=0 bufi=10515 size=12509
pts:216000 pts_time:2.4 dts:212400 dts_time:2.36 duration:0 duration_time:0 stream_index:0
[mpeg @ 0x55557d1126f0] buffer underflow st=0 bufi=38 size=487
pts:219600 pts_time:2.44 dts:216000 dts_time:2.4 duration:0 duration_time:0 stream_index:0
pts:223200 pts_time:2.48 dts:219600 dts_time:2.44 duration:0 duration_time:0 stream_index:0
[mpeg @ 0x55557d1126f0] buffer underflow st=0 bufi=910 size=938
pts:226800 pts_time:2.52 dts:223200 dts_time:2.48 duration:0 duration_time:0 stream_index:0
[mpeg @ 0x55557d1126f0] buffer underflow st=0 bufi=1992 size=3018
pts:230400 pts_time:2.56 dts:226800 dts_time:2.52 duration:0 duration_time:0 stream_index:0
pts:234000 pts_time:2.6 dts:230400 dts_time:2.56 duration:0 duration_time:0 stream_index:0
[mpeg @ 0x55557d1126f0] buffer underflow st=0 bufi=793 size=5874
[mpeg @ 0x55557d1126f0] buffer underflow st=0 bufi=2834 size=5874
[mpeg @ 0x55557d1126f0] buffer underflow st=0 bufi=4875 size=5874
pts:237600 pts_time:2.64 dts:234000 dts_time:2.6 duration:0 duration_time:0 stream_index:0
[mpeg @ 0x55557d1126f0] buffer underflow st=0 bufi=1033 size=1489
pts:241200 pts_time:2.68 dts:237600 dts_time:2.64 duration:0 duration_time:0 stream_index:0
pts:244800 pts_time:2.72 dts:241200 dts_time:2.68 duration:0 duration_time:0 stream_index:0
pts:248400 pts_time:2.76 dts:244800 dts_time:2.72 duration:0 duration_time:0 stream_index:0
[mpeg @ 0x55557d1126f0] buffer underflow st=0 bufi=74 size=764
pts:252000 pts_time:2.8 dts:248400 dts_time:2.76 duration:0 duration_time:0 stream_index:0
pts:255600 pts_time:2.84 dts:252000 dts_time:2.8 duration:0 duration_time:0 stream_index:0
[mpeg @ 0x55557d1126f0] buffer underflow st=0 bufi=351 size=13911
[mpeg @ 0x55557d1126f0] buffer underflow st=0 bufi=2392 size=13911
[mpeg @ 0x55557d1126f0] buffer underflow st=0 bufi=4433 size=13911
[mpeg @ 0x55557d1126f0] buffer underflow st=0 bufi=6474 size=13911
[mpeg @ 0x55557d1126f0] buffer underflow st=0 bufi=8515 size=13911
[mpeg @ 0x55557d1126f0] buffer underflow st=0 bufi=10556 size=13911
[mpeg @ 0x55557d1126f0] buffer underflow st=0 bufi=12597 size=13911
pts:259200 pts_time:2.88 dts:255600 dts_time:2.84 duration:0 duration_time:0 stream_index:0
pts:262800 pts_time:2.92 dts:259200 dts_time:2.88 duration:0 duration_time:0 stream_index:0
[mpeg @ 0x55557d1126f0] buffer underflow st=0 bufi=307 size=1220
pts:266400 pts_time:2.96 dts:262800 dts_time:2.92 duration:0 duration_time:0 stream_index:0
pts:270000 pts_time:3 dts:266400 dts_time:2.96 duration:0 duration_time:0 stream_index:0
[mpeg @ 0x55557d1126f0] buffer underflow st=0 bufi=296 size=5129
[mpeg @ 0x55557d1126f0] buffer underflow st=0 bufi=2337 size=5129
[mpeg @ 0x55557d1126f0] buffer underflow st=0 bufi=4378 size=5129
pts:273600 pts_time:3.04 dts:270000 dts_time:3 duration:0 duration_time:0 stream_index:0
[mpeg @ 0x55557d1126f0] buffer underflow st=0 bufi=1281 size=4617
[mpeg @ 0x55557d1126f0] buffer underflow st=0 bufi=3322 size=4617
pts:277200 pts_time:3.08 dts:273600 dts_time:3.04 duration:0 duration_time:0 stream_index:0
[mpeg @ 0x55557d1126f0] buffer underflow st=0 bufi=737 size=810
pts:280800 pts_time:3.12 dts:277200 dts_time:3.08 duration:0 duration_time:0 stream_index:0
pts:284400 pts_time:3.16 dts:280800 dts_time:3.12 duration:0 duration_time:0 stream_index:0
pts:288000 pts_time:3.2 dts:284400 dts_time:3.16 duration:0 duration_time:0 stream_index:0
[mpeg @ 0x55557d1126f0] buffer underflow st=0 bufi=178 size=1728
pts:291600 pts_time:3.24 dts:288000 dts_time:3.2 duration:0 duration_time:0 stream_index:0
[mpeg @ 0x55557d1126f0] buffer underflow st=0 bufi=482 size=1212
pts:295200 pts_time:3.28 dts:291600 dts_time:3.24 duration:0 duration_time:0 stream_index:0
pts:298800 pts_time:3.32 dts:295200 dts_time:3.28 duration:0 duration_time:0 stream_index:0
[mpeg @ 0x55557d1126f0] buffer underflow st=0 bufi=336 size=13998
[mpeg @ 0x55557d1126f0] buffer underflow st=0 bufi=2377 size=13998
[mpeg @ 0x55557d1126f0] buffer underflow st=0 bufi=4418 size=13998
[mpeg @ 0x55557d1126f0] buffer underflow st=0 bufi=6459 size=13998
[mpeg @ 0x55557d1126f0] buffer underflow st=0 bufi=8500 size=13998
[mpeg @ 0x55557d1126f0] buffer underflow st=0 bufi=10541 size=13998
[mpeg @ 0x55557d1126f0] buffer underflow st=0 bufi=12582 size=13998
pts:302400 pts_time:3.36 dts:298800 dts_time:3.32 duration:0 duration_time:0 stream_index:0
pts:306000 pts_time:3.4 dts:302400 dts_time:3.36 duration:0 duration_time:0 stream_index:0
[mpeg @ 0x55557d1126f0] buffer underflow st=0 bufi=192 size=2448
[mpeg @ 0x55557d1126f0] buffer underflow st=0 bufi=2233 size=2448
pts:309600 pts_time:3.44 dts:306000 dts_time:3.4 duration:0 duration_time:0 stream_index:0
pts:313200 pts_time:3.48 dts:309600 dts_time:3.44 duration:0 duration_time:0 stream_index:0
pts:316800 pts_time:3.52 dts:313200 dts_time:3.48 duration:0 duration_time:0 stream_index:0
[mpeg @ 0x55557d1126f0] buffer underflow st=0 bufi=326 size=482
pts:320400 pts_time:3.56 dts:316800 dts_time:3.52 duration:0 duration_time:0 stream_index:0
[mpeg @ 0x55557d1126f0] buffer underflow st=0 bufi=1876 size=2094
pts:324000 pts_time:3.6 dts:320400 dts_time:3.56 duration:0 duration_time:0 stream_index:0
pts:327600 pts_time:3.64 dts:324000 dts_time:3.6 duration:0 duration_time:0 stream_index:0
pts:331200 pts_time:3.68 dts:327600 dts_time:3.64 duration:0 duration_time:0 stream_index:0
[mpeg @ 0x55557d1126f0] buffer underflow st=0 bufi=288 size=693
pts:334800 pts_time:3.72 dts:331200 dts_time:3.68 duration:0 duration_time:0 stream_index:0
pts:338400 pts_time:3.76 dts:334800 dts_time:3.72 duration:0 duration_time:0 stream_index:0
pts:342000 pts_time:3.8 dts:338400 dts_time:3.76 duration:0 duration_time:0 stream_index:0
[mpeg @ 0x55557d1126f0] buffer underflow st=0 bufi=72 size=14048
[mpeg @ 0x55557d1126f0] buffer underflow st=0 bufi=2113 size=14048
[mpeg @ 0x55557d1126f0] buffer underflow st=0 bufi=4154 size=14048
[mpeg @ 0x55557d1126f0] buffer underflow st=0 bufi=6195 size=14048
[mpeg @ 0x55557d1126f0] buffer underflow st=0 bufi=8236 size=14048
[mpeg @ 0x55557d1126f0] buffer underflow st=0 bufi=10277 size=14048
[mpeg @ 0x55557d1126f0] buffer underflow st=0 bufi=12318 size=14048
pts:345600 pts_time:3.84 dts:342000 dts_time:3.8 duration:0 duration_time:0 stream_index:0
[mpeg @ 0x55557d1126f0] buffer underflow st=0 bufi=302 size=6722
[mpeg @ 0x55557d1126f0] buffer underflow st=0 bufi=2343 size=6722
[mpeg @ 0x55557d1126f0] buffer underflow st=0 bufi=4384 size=6722
[mpeg @ 0x55557d1126f0] buffer underflow st=0 bufi=6425 size=6722
pts:349200 pts_time:3.88 dts:345600 dts_time:3.84 duration:0 duration_time:0 stream_index:0
pts:352800 pts_time:3.92 dts:349200 dts_time:3.88 duration:0 duration_time:0 stream_index:0
[mpeg @ 0x55557d1126f0] buffer underflow st=0 bufi=164 size=497
pts:356400 pts_time:3.96 dts:352800 dts_time:3.92 duration:0 duration_time:0 stream_index:0
pts:360000 pts_time:4 dts:356400 dts_time:3.96 duration:0 duration_time:0 stream_index:0
[mpeg @ 0x55557d1126f0] buffer underflow st=0 bufi=905 size=29737
[mpeg @ 0x55557d1126f0] buffer underflow st=0 bufi=2946 size=29737
[mpeg @ 0x55557d1126f0] buffer underflow st=0 bufi=4987 size=29737
[mpeg @ 0x55557d1126f0] buffer underflow st=0 bufi=7028 size=29737
[mpeg @ 0x55557d1126f0] buffer underflow st=0 bufi=9069 size=29737
[mpeg @ 0x55557d1126f0] buffer underflow st=0 bufi=11110 size=29737
[mpeg @ 0x55557d1126f0] buffer underflow st=0 bufi=13139 size=29737
[mpeg @ 0x55557d1126f0] buffer underflow st=0 bufi=15180 size=29737
[mpeg @ 0x55557d1126f0] buffer underflow st=0 bufi=17221 size=29737
[mpeg @ 0x55557d1126f0] buffer underflow st=0 bufi=19262 size=29737
[mpeg @ 0x55557d1126f0] buffer underflow st=0 bufi=21303 size=29737
[mpeg @ 0x55557d1126f0] buffer underflow st=0 bufi=23344 size=29737
[mpeg @ 0x55557d1126f0] buffer underflow st=0 bufi=25385 size=29737
[mpeg @ 0x55557d1126f0] buffer underflow st=0 bufi=27426 size=29737
[mpeg @ 0x55557d1126f0] buffer underflow st=0 bufi=29467 size=29737
pts:363600 pts_time:4.04 dts:360000 dts_time:4 duration:0 duration_time:0 stream_index:0
[mpeg @ 0x55557d1126f0] buffer underflow st=0 bufi=1762 size=5181
[mpeg @ 0x55557d1126f0] buffer underflow st=0 bufi=3803 size=5181
pts:367200 pts_time:4.08 dts:363600 dts_time:4.04 duration:0 duration_time:0 stream_index:0
[mpeg @ 0x55557d1126f0] buffer underflow st=0 bufi=654 size=6564
[mpeg @ 0x55557d1126f0] buffer underflow st=0 bufi=2695 size=6564
[mpeg @ 0x55557d1126f0] buffer underflow st=0 bufi=4736 size=6564
pts:370800 pts_time:4.12 dts:367200 dts_time:4.08 duration:0 duration_time:0 stream_index:0
[mpeg @ 0x55557d1126f0] buffer underflow st=0 bufi=204 size=4399
[mpeg @ 0x55557d1126f0] buffer underflow st=0 bufi=2245 size=4399
[mpeg @ 0x55557d1126f0] buffer underflow st=0 bufi=4286 size=4399
pts:374400 pts_time:4.16 dts:370800 dts_time:4.12 duration:0 duration_time:0 stream_index:0
[mpeg @ 0x55557d1126f0] buffer underflow st=0 bufi=1919 size=4396
[mpeg @ 0x55557d1126f0] buffer underflow st=0 bufi=3960 size=4396
pts:378000 pts_time:4.2 dts:374400 dts_time:4.16 duration:0 duration_time:0 stream_index:0
[mpeg @ 0x55557d1126f0] buffer underflow st=0 bufi=1596 size=4389
[mpeg @ 0x55557d1126f0] buffer underflow st=0 bufi=3637 size=4389
pts:381600 pts_time:4.24 dts:378000 dts_time:4.2 duration:0 duration_time:0 stream_index:0
[mpeg @ 0x55557d1126f0] buffer underflow st=0 bufi=1280 size=3741
[mpeg @ 0x55557d1126f0] buffer underflow st=0 bufi=3321 size=3741
pts:385200 pts_time:4.28 dts:381600 dts_time:4.24 duration:0 duration_time:0 stream_index:0
[mpeg @ 0x55557d1126f0] buffer underflow st=0 bufi=1612 size=16728
[mpeg @ 0x55557d1126f0] buffer underflow st=0 bufi=3653 size=16728
[mpeg @ 0x55557d1126f0] buffer underflow st=0 bufi=5694 size=16728
[mpeg @ 0x55557d1126f0] buffer underflow st=0 bufi=7735 size=16728
[mpeg @ 0x55557d1126f0] buffer underflow st=0 bufi=9776 size=16728
[mpeg @ 0x55557d1126f0] buffer underflow st=0 bufi=11817 size=16728
[mpeg @ 0x55557d1126f0] buffer underflow st=0 bufi=13858 size=16728
[mpeg @ 0x55557d1126f0] buffer underflow st=0 bufi=15899 size=16728
pts:388800 pts_time:4.32 dts:385200 dts_time:4.28 duration:0 duration_time:0 stream_index:0
[mpeg @ 0x55557d1126f0] buffer underflow st=0 bufi=1203 size=3309
[mpeg @ 0x55557d1126f0] buffer underflow st=0 bufi=3244 size=3309
pts:392400 pts_time:4.36 dts:388800 dts_time:4.32 duration:0 duration_time:0 stream_index:0
[mpeg @ 0x55557d1126f0] buffer underflow st=0 bufi=1967 size=3497
pts:396000 pts_time:4.4 dts:392400 dts_time:4.36 duration:0 duration_time:0 stream_index:0
[mpeg @ 0x55557d1126f0] buffer underflow st=0 bufi=502 size=3281
[mpeg @ 0x55557d1126f0] buffer underflow st=0 bufi=2543 size=3281
pts:399600 pts_time:4.44 dts:396000 dts_time:4.4 duration:0 duration_time:0 stream_index:0
[mpeg @ 0x55557d1126f0] buffer underflow st=0 bufi=1294 size=4757
[mpeg @ 0x55557d1126f0] buffer underflow st=0 bufi=3335 size=4757
pts:403200 pts_time:4.48 dts:399600 dts_time:4.44 duration:0 duration_time:0 stream_index:0
[mpeg @ 0x55557d1126f0] buffer underflow st=0 bufi=610 size=3741
[mpeg @ 0x55557d1126f0] buffer underflow st=0 bufi=2651 size=3741
pts:406800 pts_time:4.52 dts:403200 dts_time:4.48 duration:0 duration_time:0 stream_index:0
[mpeg @ 0x55557d1126f0] buffer underflow st=0 bufi=942 size=2548
pts:410400 pts_time:4.56 dts:406800 dts_time:4.52 duration:0 duration_time:0 stream_index:0
[mpeg @ 0x55557d1126f0] buffer underflow st=0 bufi=426 size=4564
[mpeg @ 0x55557d1126f0] buffer underflow st=0 bufi=2467 size=4564
[mpeg @ 0x55557d1126f0] buffer underflow st=0 bufi=4508 size=4564
pts:414000 pts_time:4.6 dts:410400 dts_time:4.56 duration:0 duration_time:0 stream_index:0
[mpeg @ 0x55557d1126f0] buffer underflow st=0 bufi=1976 size=2128
pts:417600 pts_time:4.64 dts:414000 dts_time:4.6 duration:0 duration_time:0 stream_index:0
[mpeg @ 0x55557d1126f0] buffer underflow st=0 bufi=1880 size=3901
pts:421200 pts_time:4.68 dts:417600 dts_time:4.64 duration:0 duration_time:0 stream_index:0
[mpeg @ 0x55557d1126f0] buffer underflow st=0 bufi=11 size=2352
[mpeg @ 0x55557d1126f0] buffer underflow st=0 bufi=2052 size=2352
pts:424800 pts_time:4.72 dts:421200 dts_time:4.68 duration:0 duration_time:0 stream_index:0
[mpeg @ 0x55557d1126f0] buffer underflow st=0 bufi=1732 size=4528
[mpeg @ 0x55557d1126f0] buffer underflow st=0 bufi=3773 size=4528
pts:428400 pts_time:4.76 dts:424800 dts_time:4.72 duration:0 duration_time:0 stream_index:0
[mpeg @ 0x55557d1126f0] buffer underflow st=0 bufi=1277 size=11545
[mpeg @ 0x55557d1126f0] buffer underflow st=0 bufi=3318 size=11545
[mpeg @ 0x55557d1126f0] buffer underflow st=0 bufi=5347 size=11545
[mpeg @ 0x55557d1126f0] buffer underflow st=0 bufi=7388 size=11545
[mpeg @ 0x55557d1126f0] buffer underflow st=0 bufi=9429 size=11545
[mpeg @ 0x55557d1126f0] buffer underflow st=0 bufi=11470 size=11545
pts:432000 pts_time:4.8 dts:428400 dts_time:4.76 duration:0 duration_time:0 stream_index:0
[mpeg @ 0x55557d1126f0] buffer underflow st=0 bufi=1957 size=2174
pts:435600 pts_time:4.84 dts:432000 dts_time:4.8 duration:0 duration_time:0 stream_index:0
[mpeg @ 0x55557d1126f0] buffer underflow st=0 bufi=1815 size=3841
pts:439200 pts_time:4.88 dts:435600 dts_time:4.84 duration:0 duration_time:0 stream_index:0
[mpeg @ 0x55557d1126f0] buffer underflow st=0 bufi=6 size=2146
[mpeg @ 0x55557d1126f0] buffer underflow st=0 bufi=2047 size=2146
pts:442800 pts_time:4.92 dts:439200 dts_time:4.88 duration:0 duration_time:0 stream_index:0
[mpeg @ 0x55557d1126f0] buffer underflow st=0 bufi=1933 size=3480
pts:446400 pts_time:4.96 dts:442800 dts_time:4.92 duration:0 duration_time:0 stream_index:0
[mpeg @ 0x55557d1126f0] buffer underflow st=0 bufi=485 size=3693
[mpeg @ 0x55557d1126f0] buffer underflow st=0 bufi=2526 size=3693
pts:450000 pts_time:5 dts:446400 dts_time:4.96 duration:0 duration_time:0 stream_index:0
[mpeg @ 0x55557d1126f0] buffer underflow st=0 bufi=865 size=2184
pts:453600 pts_time:5.04 dts:450000 dts_time:5 duration:0 duration_time:0 stream_index:0
[mpeg @ 0x55557d1126f0] buffer underflow st=0 bufi=713 size=3651
[mpeg @ 0x55557d1126f0] buffer underflow st=0 bufi=2754 size=3651
pts:457200 pts_time:5.08 dts:453600 dts_time:5.04 duration:0 duration_time:0 stream_index:0
[mpeg @ 0x55557d1126f0] buffer underflow st=0 bufi=1135 size=1846
pts:460800 pts_time:5.12 dts:457200 dts_time:5.08 duration:0 duration_time:0 stream_index:0
[mpeg @ 0x55557d1126f0] buffer underflow st=0 bufi=1321 size=2804
pts:464400 pts_time:5.16 dts:460800 dts_time:5.12 duration:0 duration_time:0 stream_index:0
[mpeg @ 0x55557d1126f0] buffer underflow st=0 bufi=549 size=4991
[mpeg @ 0x55557d1126f0] buffer underflow st=0 bufi=2590 size=4991
[mpeg @ 0x55557d1126f0] buffer underflow st=0 bufi=4631 size=4991
pts:468000 pts_time:5.2 dts:464400 dts_time:5.16 duration:0 duration_time:0 stream_index:0
[mpeg @ 0x55557d1126f0] buffer underflow st=0 bufi=1672 size=3761
[mpeg @ 0x55557d1126f0] buffer underflow st=0 bufi=3713 size=3761
pts:471600 pts_time:5.24 dts:468000 dts_time:5.2 duration:0 duration_time:0 stream_index:0
[mpeg @ 0x55557d1126f0] buffer underflow st=0 bufi=1984 size=12768
[mpeg @ 0x55557d1126f0] buffer underflow st=0 bufi=4025 size=12768
[mpeg @ 0x55557d1126f0] buffer underflow st=0 bufi=6066 size=12768
[mpeg @ 0x55557d1126f0] buffer underflow st=0 bufi=8107 size=12768
[mpeg @ 0x55557d1126f0] buffer underflow st=0 bufi=10148 size=12768
[mpeg @ 0x55557d1126f0] buffer underflow st=0 bufi=12189 size=12768
pts:475200 pts_time:5.28 dts:471600 dts_time:5.24 duration:0 duration_time:0 stream_index:0
[mpeg @ 0x55557d1126f0] buffer underflow st=0 bufi=1453 size=4492
[mpeg @ 0x55557d1126f0] buffer underflow st=0 bufi=3494 size=4492
pts:478800 pts_time:5.32 dts:475200 dts_time:5.28 duration:0 duration_time:0 stream_index:0
[mpeg @ 0x55557d1126f0] buffer underflow st=0 bufi=1034 size=2617
pts:482400 pts_time:5.36 dts:478800 dts_time:5.32 duration:0 duration_time:0 stream_index:0
[mpeg @ 0x55557d1126f0] buffer underflow st=0 bufi=449 size=4108
[mpeg @ 0x55557d1126f0] buffer underflow st=0 bufi=2490 size=4108
pts:486000 pts_time:5.4 dts:482400 dts_time:5.36 duration:0 duration_time:0 stream_index:0
[mpeg @ 0x55557d1126f0] buffer underflow st=0 bufi=414 size=1930
pts:489600 pts_time:5.44 dts:486000 dts_time:5.4 duration:0 duration_time:0 stream_index:0
[mpeg @ 0x55557d1126f0] buffer underflow st=0 bufi=516 size=2593
[mpeg @ 0x55557d1126f0] buffer underflow st=0 bufi=2557 size=2593
pts:493200 pts_time:5.48 dts:489600 dts_time:5.44 duration:0 duration_time:0 stream_index:0
[mpeg @ 0x55557d1126f0] buffer underflow st=0 bufi=1996 size=4025
pts:496800 pts_time:5.52 dts:493200 dts_time:5.48 duration:0 duration_time:0 stream_index:0
[mpeg @ 0x55557d1126f0] buffer underflow st=0 bufi=3 size=2512
[mpeg @ 0x55557d1126f0] buffer underflow st=0 bufi=2044 size=2512
pts:500400 pts_time:5.56 dts:496800 dts_time:5.52 duration:0 duration_time:0 stream_index:0
[mpeg @ 0x55557d1126f0] buffer underflow st=0 bufi=1564 size=3568
pts:504000 pts_time:5.6 dts:500400 dts_time:5.56 duration:0 duration_time:0 stream_index:0
[mpeg @ 0x55557d1126f0] buffer underflow st=0 bufi=28 size=2699
[mpeg @ 0x55557d1126f0] buffer underflow st=0 bufi=2069 size=2699
pts:507600 pts_time:5.64 dts:504000 dts_time:5.6 duration:0 duration_time:0 stream_index:0
[mpeg @ 0x55557d1126f0] buffer underflow st=0 bufi=1402 size=2041
pts:511200 pts_time:5.68 dts:507600 dts_time:5.64 duration:0 duration_time:0 stream_index:0
[mpeg @ 0x55557d1126f0] buffer underflow st=0 bufi=1393 size=3190
pts:514800 pts_time:5.72 dts:511200 dts_time:5.68 duration:0 duration_time:0 stream_index:0
[mpeg @ 0x55557d1126f0] buffer underflow st=0 bufi=235 size=9721
[mpeg @ 0x55557d1126f0] buffer underflow st=0 bufi=2276 size=9721
[mpeg @ 0x55557d1126f0] buffer underflow st=0 bufi=4317 size=9721
[mpeg @ 0x55557d1126f0] buffer underflow st=0 bufi=6358 size=9721
[mpeg @ 0x55557d1126f0] buffer underflow st=0 bufi=8399 size=9721
pts:518400 pts_time:5.76 dts:514800 dts_time:5.72 duration:0 duration_time:0 stream_index:0
[mpeg @ 0x55557d1126f0] buffer underflow st=0 bufi=710 size=1929
pts:522000 pts_time:5.8 dts:518400 dts_time:5.76 duration:0 duration_time:0 stream_index:0
[mpeg @ 0x55557d1126f0] buffer underflow st=0 bufi=813 size=2216
pts:525600 pts_time:5.84 dts:522000 dts_time:5.8 duration:0 duration_time:0 stream_index:0
[mpeg @ 0x55557d1126f0] buffer underflow st=0 bufi=629 size=3312
[mpeg @ 0x55557d1126f0] buffer underflow st=0 bufi=2670 size=3312
pts:529200 pts_time:5.88 dts:525600 dts_time:5.84 duration:0 duration_time:0 stream_index:0
[mpeg @ 0x55557d1126f0] buffer underflow st=0 bufi=1363 size=1770
pts:532800 pts_time:5.92 dts:529200 dts_time:5.88 duration:0 duration_time:0 stream_index:0
[mpeg @ 0x55557d1126f0] buffer underflow st=0 bufi=1625 size=2279
pts:536400 pts_time:5.96 dts:532800 dts_time:5.92 duration:0 duration_time:0 stream_index:0
[mpeg @ 0x55557d1126f0] buffer underflow st=0 bufi=1378 size=3264
pts:540000 pts_time:6 dts:536400 dts_time:5.96 duration:0 duration_time:0 stream_index:0
[mpeg @ 0x55557d1126f0] buffer underflow st=0 bufi=146 size=3620
[mpeg @ 0x55557d1126f0] buffer underflow st=0 bufi=2187 size=3620
pts:543600 pts_time:6.04 dts:540000 dts_time:6 duration:0 duration_time:0 stream_index:0
[mpeg @ 0x55557d1126f0] buffer underflow st=0 bufi=599 size=1666
pts:547200 pts_time:6.08 dts:543600 dts_time:6.04 duration:0 duration_time:0 stream_index:0
[mpeg @ 0x55557d1126f0] buffer underflow st=0 bufi=965 size=2201
pts:550800 pts_time:6.12 dts:547200 dts_time:6.08 duration:0 duration_time:0 stream_index:0
[mpeg @ 0x55557d1126f0] buffer underflow st=0 bufi=796 size=2826
pts:554400 pts_time:6.16 dts:550800 dts_time:6.12 duration:0 duration_time:0 stream_index:0
[mpeg @ 0x55557d1126f0] buffer underflow st=0 bufi=2 size=1948
pts:558000 pts_time:6.2 dts:554400 dts_time:6.16 duration:0 duration_time:0 stream_index:0
[mpeg @ 0x55557d1126f0] buffer underflow st=0 bufi=86 size=11041
[mpeg @ 0x55557d1126f0] buffer underflow st=0 bufi=2127 size=11041
[mpeg @ 0x55557d1126f0] buffer underflow st=0 bufi=4168 size=11041
[mpeg @ 0x55557d1126f0] buffer underflow st=0 bufi=6209 size=11041
[mpeg @ 0x55557d1126f0] buffer underflow st=0 bufi=8250 size=11041
[mpeg @ 0x55557d1126f0] buffer underflow st=0 bufi=10291 size=11041
pts:561600 pts_time:6.24 dts:558000 dts_time:6.2 duration:0 duration_time:0 stream_index:0
[mpeg @ 0x55557d1126f0] buffer underflow st=0 bufi=1282 size=2493
pts:565200 pts_time:6.28 dts:561600 dts_time:6.24 duration:0 duration_time:0 stream_index:0
[mpeg @ 0x55557d1126f0] buffer underflow st=0 bufi=821 size=2257
pts:568800 pts_time:6.32 dts:565200 dts_time:6.28 duration:0 duration_time:0 stream_index:0
[mpeg @ 0x55557d1126f0] buffer underflow st=0 bufi=596 size=2934
[mpeg @ 0x55557d1126f0] buffer underflow st=0 bufi=2637 size=2934
pts:572400 pts_time:6.36 dts:568800 dts_time:6.32 duration:0 duration_time:0 stream_index:0
pts:576000 pts_time:6.4 dts:572400 dts_time:6.36 duration:0 duration_time:0 stream_index:0
[mpeg @ 0x55557d1126f0] buffer underflow st=0 bufi=166 size=1791
pts:579600 pts_time:6.44 dts:576000 dts_time:6.4 duration:0 duration_time:0 stream_index:0
[mpeg @ 0x55557d1126f0] buffer underflow st=0 bufi=407 size=3079
[mpeg @ 0x55557d1126f0] buffer underflow st=0 bufi=2448 size=3079
pts:583200 pts_time:6.48 dts:579600 dts_time:6.44 duration:0 duration_time:0 stream_index:0
[mpeg @ 0x55557d1126f0] buffer underflow st=0 bufi=1401 size=3489
[mpeg @ 0x55557d1126f0] buffer underflow st=0 bufi=3442 size=3489
pts:586800 pts_time:6.52 dts:583200 dts_time:6.48 duration:0 duration_time:0 stream_index:0
pts:590400 pts_time:6.56 dts:586800 dts_time:6.52 duration:0 duration_time:0 stream_index:0
[mpeg @ 0x55557d1126f0] buffer underflow st=0 bufi=384 size=1995
pts:594000 pts_time:6.6 dts:590400 dts_time:6.56 duration:0 duration_time:0 stream_index:0
[mpeg @ 0x55557d1126f0] buffer underflow st=0 bufi=421 size=1983
pts:597600 pts_time:6.64 dts:594000 dts_time:6.6 duration:0 duration_time:0 stream_index:0
[mpeg @ 0x55557d1126f0] buffer underflow st=0 bufi=470 size=2670
[mpeg @ 0x55557d1126f0] buffer underflow st=0 bufi=2511 size=2670
pts:601200 pts_time:6.68 dts:597600 dts_time:6.64 duration:0 duration_time:0 stream_index:0
[mpeg @ 0x55557d1126f0] buffer underflow st=0 bufi=1873 size=9365
[mpeg @ 0x55557d1126f0] buffer underflow st=0 bufi=3914 size=9365
[mpeg @ 0x55557d1126f0] buffer underflow st=0 bufi=5955 size=9365
[mpeg @ 0x55557d1126f0] buffer underflow st=0 bufi=7996 size=9365
pts:604800 pts_time:6.72 dts:601200 dts_time:6.68 duration:0 duration_time:0 stream_index:0
[mpeg @ 0x55557d1126f0] buffer underflow st=0 bufi=663 size=1693
pts:608400 pts_time:6.76 dts:604800 dts_time:6.72 duration:0 duration_time:0 stream_index:0
[mpeg @ 0x55557d1126f0] buffer underflow st=0 bufi=1002 size=2454
pts:612000 pts_time:6.8 dts:608400 dts_time:6.76 duration:0 duration_time:0 stream_index:0
[mpeg @ 0x55557d1126f0] buffer underflow st=0 bufi=580 size=2745
[mpeg @ 0x55557d1126f0] buffer underflow st=0 bufi=2621 size=2745
pts:615600 pts_time:6.84 dts:612000 dts_time:6.8 duration:0 duration_time:0 stream_index:0
pts:619200 pts_time:6.88 dts:615600 dts_time:6.84 duration:0 duration_time:0 stream_index:0
[mpeg @ 0x55557d1126f0] buffer underflow st=0 bufi=369 size=1973
pts:622800 pts_time:6.92 dts:619200 dts_time:6.88 duration:0 duration_time:0 stream_index:0
[mpeg @ 0x55557d1126f0] buffer underflow st=0 bufi=428 size=2689
[mpeg @ 0x55557d1126f0] buffer underflow st=0 bufi=2469 size=2689
pts:626400 pts_time:6.96 dts:622800 dts_time:6.92 duration:0 duration_time:0 stream_index:0
[mpeg @ 0x55557d1126f0] buffer underflow st=0 bufi=1812 size=2712
pts:630000 pts_time:7 dts:626400 dts_time:6.96 duration:0 duration_time:0 stream_index:0
[mpeg @ 0x55557d1126f0] buffer underflow st=0 bufi=1132 size=1494
pts:633600 pts_time:7.04 dts:630000 dts_time:7 duration:0 duration_time:0 stream_index:0
[mpeg @ 0x55557d1126f0] buffer underflow st=0 bufi=1670 size=2111
pts:637200 pts_time:7.08 dts:633600 dts_time:7.04 duration:0 duration_time:0 stream_index:0
[mpeg @ 0x55557d1126f0] buffer underflow st=0 bufi=1591 size=2704
pts:640800 pts_time:7.12 dts:637200 dts_time:7.08 duration:0 duration_time:0 stream_index:0
[mpeg @ 0x55557d1126f0] buffer underflow st=0 bufi=919 size=1740
pts:644400 pts_time:7.16 dts:640800 dts_time:7.12 duration:0 duration_time:0 stream_index:0
[mpeg @ 0x55557d1126f0] buffer underflow st=0 bufi=1211 size=10565
[mpeg @ 0x55557d1126f0] buffer underflow st=0 bufi=3252 size=10565
[mpeg @ 0x55557d1126f0] buffer underflow st=0 bufi=5293 size=10565
[mpeg @ 0x55557d1126f0] buffer underflow st=0 bufi=7334 size=10565
[mpeg @ 0x55557d1126f0] buffer underflow st=0 bufi=9375 size=10565
pts:648000 pts_time:7.2 dts:644400 dts_time:7.16 duration:0 duration_time:0 stream_index:0
[mpeg @ 0x55557d1126f0] buffer underflow st=0 bufi=842 size=2924
[mpeg @ 0x55557d1126f0] buffer underflow st=0 bufi=2883 size=2924
pts:651600 pts_time:7.24 dts:648000 dts_time:7.2 duration:0 duration_time:0 stream_index:0
[mpeg @ 0x55557d1126f0] buffer underflow st=0 bufi=1991 size=2502
pts:655200 pts_time:7.28 dts:651600 dts_time:7.24 duration:0 duration_time:0 stream_index:0
[mpeg @ 0x55557d1126f0] buffer underflow st=0 bufi=1509 size=3301
pts:658800 pts_time:7.32 dts:655200 dts_time:7.28 duration:0 duration_time:0 stream_index:0
[mpeg @ 0x55557d1126f0] buffer underflow st=0 bufi=240 size=1764
pts:662400 pts_time:7.36 dts:658800 dts_time:7.32 duration:0 duration_time:0 stream_index:0
[mpeg @ 0x55557d1126f0] buffer underflow st=0 bufi=508 size=2015
pts:666000 pts_time:7.4 dts:662400 dts_time:7.36 duration:0 duration_time:0 stream_index:0
[mpeg @ 0x55557d1126f0] buffer underflow st=0 bufi=525 size=3379
[mpeg @ 0x55557d1126f0] buffer underflow st=0 bufi=2566 size=3379
pts:669600 pts_time:7.44 dts:666000 dts_time:7.4 duration:0 duration_time:0 stream_index:0
[mpeg @ 0x55557d1126f0] buffer underflow st=0 bufi=1219 size=2993
pts:673200 pts_time:7.48 dts:669600 dts_time:7.44 duration:0 duration_time:0 stream_index:0
[mpeg @ 0x55557d1126f0] buffer underflow st=0 bufi=258 size=2095
pts:676800 pts_time:7.52 dts:673200 dts_time:7.48 duration:0 duration_time:0 stream_index:0
[mpeg @ 0x55557d1126f0] buffer underflow st=0 bufi=195 size=2714
[mpeg @ 0x55557d1126f0] buffer underflow st=0 bufi=2236 size=2714
pts:680400 pts_time:7.56 dts:676800 dts_time:7.52 duration:0 duration_time:0 stream_index:0
[mpeg @ 0x55557d1126f0] buffer underflow st=0 bufi=1554 size=2757
pts:684000 pts_time:7.6 dts:680400 dts_time:7.56 duration:0 duration_time:0 stream_index:0
[mpeg @ 0x55557d1126f0] buffer underflow st=0 bufi=829 size=2611
pts:687600 pts_time:7.64 dts:684000 dts_time:7.6 duration:0 duration_time:0 stream_index:0
[mpeg @ 0x55557d1126f0] buffer underflow st=0 bufi=250 size=9231
[mpeg @ 0x55557d1126f0] buffer underflow st=0 bufi=2291 size=9231
[mpeg @ 0x55557d1126f0] buffer underflow st=0 bufi=4332 size=9231
[mpeg @ 0x55557d1126f0] buffer underflow st=0 bufi=6373 size=9231
[mpeg @ 0x55557d1126f0] buffer underflow st=0 bufi=8414 size=9231
pts:691200 pts_time:7.68 dts:687600 dts_time:7.64 duration:0 duration_time:0 stream_index:0
[mpeg @ 0x55557d1126f0] buffer underflow st=0 bufi=1215 size=1256
pts:694800 pts_time:7.72 dts:691200 dts_time:7.68 duration:0 duration_time:0 stream_index:0
pts:698400 pts_time:7.76 dts:694800 dts_time:7.72 duration:0 duration_time:0 stream_index:0
[mpeg @ 0x55557d1126f0] buffer underflow st=0 bufi=445 size=2748
[mpeg @ 0x55557d1126f0] buffer underflow st=0 bufi=2486 size=2748
pts:702000 pts_time:7.8 dts:698400 dts_time:7.76 duration:0 duration_time:0 stream_index:0
pts:705600 pts_time:7.84 dts:702000 dts_time:7.8 duration:0 duration_time:0 stream_index:0
[mpeg @ 0x55557d1126f0] buffer underflow st=0 bufi=415 size=1519
pts:709200 pts_time:7.88 dts:705600 dts_time:7.84 duration:0 duration_time:0 stream_index:0
[mpeg @ 0x55557d1126f0] buffer underflow st=0 bufi=928 size=2458
pts:712800 pts_time:7.92 dts:709200 dts_time:7.88 duration:0 duration_time:0 stream_index:0
[mpeg @ 0x55557d1126f0] buffer underflow st=0 bufi=502 size=2321
pts:716400 pts_time:7.96 dts:712800 dts_time:7.92 duration:0 duration_time:0 stream_index:0
[mpeg @ 0x55557d1126f0] buffer underflow st=0 bufi=213 size=1323
pts:720000 pts_time:8 dts:716400 dts_time:7.96 duration:0 duration_time:0 stream_index:0
[mpeg @ 0x55557d1126f0] buffer underflow st=0 bufi=922 size=2267
pts:723600 pts_time:8.04 dts:720000 dts_time:8 duration:0 duration_time:0 stream_index:0
[mpeg @ 0x55557d1126f0] buffer underflow st=0 bufi=687 size=2690
pts:727200 pts_time:8.08 dts:723600 dts_time:8.04 duration:0 duration_time:0 stream_index:0
[mpeg @ 0x55557d1126f0] buffer underflow st=0 bufi=29 size=2006
pts:730800 pts_time:8.12 dts:727200 dts_time:8.08 duration:0 duration_time:0 stream_index:0
[mpeg @ 0x55557d1126f0] buffer underflow st=0 bufi=55 size=10277
[mpeg @ 0x55557d1126f0] buffer underflow st=0 bufi=2096 size=10277
[mpeg @ 0x55557d1126f0] buffer underflow st=0 bufi=4137 size=10277
[mpeg @ 0x55557d1126f0] buffer underflow st=0 bufi=6178 size=10277
[mpeg @ 0x55557d1126f0] buffer underflow st=0 bufi=8219 size=10277
[mpeg @ 0x55557d1126f0] buffer underflow st=0 bufi=10260 size=10277
pts:734400 pts_time:8.16 dts:730800 dts_time:8.12 duration:0 duration_time:0 stream_index:0
[mpeg @ 0x55557d1126f0] buffer underflow st=0 bufi=2015 size=2360
pts:738000 pts_time:8.2 dts:734400 dts_time:8.16 duration:0 duration_time:0 stream_index:0
[mpeg @ 0x55557d1126f0] buffer underflow st=0 bufi=1687 size=2210
pts:741600 pts_time:8.24 dts:738000 dts_time:8.2 duration:0 duration_time:0 stream_index:0
[mpeg @ 0x55557d1126f0] buffer underflow st=0 bufi=1509 size=2848
pts:745200 pts_time:8.28 dts:741600 dts_time:8.24 duration:0 duration_time:0 stream_index:0
[mpeg @ 0x55557d1126f0] buffer underflow st=0 bufi=693 size=1608
pts:748800 pts_time:8.32 dts:745200 dts_time:8.28 duration:0 duration_time:0 stream_index:0
[mpeg @ 0x55557d1126f0] buffer underflow st=0 bufi=1117 size=1777
pts:752400 pts_time:8.36 dts:748800 dts_time:8.32 duration:0 duration_time:0 stream_index:0
[mpeg @ 0x55557d1126f0] buffer underflow st=0 bufi=1372 size=2992
pts:756000 pts_time:8.4 dts:752400 dts_time:8.36 duration:0 duration_time:0 stream_index:0
[mpeg @ 0x55557d1126f0] buffer underflow st=0 bufi=412 size=2078
pts:759600 pts_time:8.44 dts:756000 dts_time:8.4 duration:0 duration_time:0 stream_index:0
[mpeg @ 0x55557d1126f0] buffer underflow st=0 bufi=366 size=1669
pts:763200 pts_time:8.48 dts:759600 dts_time:8.44 duration:0 duration_time:0 stream_index:0
[mpeg @ 0x55557d1126f0] buffer underflow st=0 bufi=729 size=2395
pts:766800 pts_time:8.52 dts:763200 dts_time:8.48 duration:0 duration_time:0 stream_index:0
[mpeg @ 0x55557d1126f0] buffer underflow st=0 bufi=366 size=1812
pts:770400 pts_time:8.56 dts:766800 dts_time:8.52 duration:0 duration_time:0 stream_index:0
[mpeg @ 0x55557d1126f0] buffer underflow st=0 bufi=586 size=2087
pts:774000 pts_time:8.6 dts:770400 dts_time:8.56 duration:0 duration_time:0 stream_index:0
[mpeg @ 0x55557d1126f0] buffer underflow st=0 bufi=531 size=9212
[mpeg @ 0x55557d1126f0] buffer underflow st=0 bufi=2572 size=9212
[mpeg @ 0x55557d1126f0] buffer underflow st=0 bufi=4613 size=9212
[mpeg @ 0x55557d1126f0] buffer underflow st=0 bufi=6654 size=9212
[mpeg @ 0x55557d1126f0] buffer underflow st=0 bufi=8695 size=9212
pts:777600 pts_time:8.64 dts:774000 dts_time:8.6 duration:0 duration_time:0 stream_index:0
[mpeg @ 0x55557d1126f0] buffer underflow st=0 bufi=1515 size=1670
pts:781200 pts_time:8.68 dts:777600 dts_time:8.64 duration:0 duration_time:0 stream_index:0
[mpeg @ 0x55557d1126f0] buffer underflow st=0 bufi=1877 size=2010
pts:784800 pts_time:8.72 dts:781200 dts_time:8.68 duration:0 duration_time:0 stream_index:0
[mpeg @ 0x55557d1126f0] buffer underflow st=0 bufi=1899 size=3155
pts:788400 pts_time:8.76 dts:784800 dts_time:8.72 duration:0 duration_time:0 stream_index:0
[mpeg @ 0x55557d1126f0] buffer underflow st=0 bufi=776 size=1506
pts:792000 pts_time:8.8 dts:788400 dts_time:8.76 duration:0 duration_time:0 stream_index:0
[mpeg @ 0x55557d1126f0] buffer underflow st=0 bufi=1290 size=2012
pts:795600 pts_time:8.84 dts:792000 dts_time:8.8 duration:0 duration_time:0 stream_index:0
[mpeg @ 0x55557d1126f0] buffer underflow st=0 bufi=1310 size=2738
pts:799200 pts_time:8.88 dts:795600 dts_time:8.84 duration:0 duration_time:0 stream_index:0
[mpeg @ 0x55557d1126f0] buffer underflow st=0 bufi=604 size=2739
[mpeg @ 0x55557d1126f0] buffer underflow st=0 bufi=2645 size=2739
pts:802800 pts_time:8.92 dts:799200 dts_time:8.88 duration:0 duration_time:0 stream_index:0
pts:806400 pts_time:8.96 dts:802800 dts_time:8.92 duration:0 duration_time:0 stream_index:0
[mpeg @ 0x55557d1126f0] buffer underflow st=0 bufi=362 size=2004
pts:810000 pts_time:9 dts:806400 dts_time:8.96 duration:0 duration_time:0 stream_index:0
[mpeg @ 0x55557d1126f0] buffer underflow st=0 bufi=390 size=2699
[mpeg @ 0x55557d1126f0] buffer underflow st=0 bufi=2431 size=2699
pts:813600 pts_time:9.04 dts:810000 dts_time:9 duration:0 duration_time:0 stream_index:0
pts:817200 pts_time:9.08 dts:813600 dts_time:9.04 duration:0 duration_time:0 stream_index:0
[mpeg @ 0x55557d1126f0] buffer underflow st=0 bufi=81 size=10190
[mpeg @ 0x55557d1126f0] buffer underflow st=0 bufi=2122 size=10190
[mpeg @ 0x55557d1126f0] buffer underflow st=0 bufi=4163 size=10190
[mpeg @ 0x55557d1126f0] buffer underflow st=0 bufi=6204 size=10190
[mpeg @ 0x55557d1126f0] buffer underflow st=0 bufi=8245 size=10190
pts:820800 pts_time:9.12 dts:817200 dts_time:9.08 duration:0 duration_time:0 stream_index:0
[mpeg @ 0x55557d1126f0] buffer underflow st=0 bufi=87 size=2374
[mpeg @ 0x55557d1126f0] buffer underflow st=0 bufi=2128 size=2374
pts:824400 pts_time:9.16 dts:820800 dts_time:9.12 duration:0 duration_time:0 stream_index:0
[mpeg @ 0x55557d1126f0] buffer underflow st=0 bufi=1786 size=2210
pts:828000 pts_time:9.2 dts:824400 dts_time:9.16 duration:0 duration_time:0 stream_index:0
[mpeg @ 0x55557d1126f0] buffer underflow st=0 bufi=1608 size=3191
pts:831600 pts_time:9.24 dts:828000 dts_time:9.2 duration:0 duration_time:0 stream_index:0
[mpeg @ 0x55557d1126f0] buffer underflow st=0 bufi=449 size=1674
pts:835200 pts_time:9.28 dts:831600 dts_time:9.24 duration:0 duration_time:0 stream_index:0
[mpeg @ 0x55557d1126f0] buffer underflow st=0 bufi=807 size=2060
pts:838800 pts_time:9.32 dts:835200 dts_time:9.28 duration:0 duration_time:0 stream_index:0
[mpeg @ 0x55557d1126f0] buffer underflow st=0 bufi=779 size=3537
[mpeg @ 0x55557d1126f0] buffer underflow st=0 bufi=2820 size=3537
pts:842400 pts_time:9.36 dts:838800 dts_time:9.32 duration:0 duration_time:0 stream_index:0
[mpeg @ 0x55557d1126f0] buffer underflow st=0 bufi=1315 size=2912
pts:846000 pts_time:9.4 dts:842400 dts_time:9.36 duration:0 duration_time:0 stream_index:0
[mpeg @ 0x55557d1126f0] buffer underflow st=0 bufi=435 size=2237
pts:849600 pts_time:9.44 dts:846000 dts_time:9.4 duration:0 duration_time:0 stream_index:0
[mpeg @ 0x55557d1126f0] buffer underflow st=0 bufi=230 size=2773
[mpeg @ 0x55557d1126f0] buffer underflow st=0 bufi=2271 size=2773
pts:853200 pts_time:9.48 dts:849600 dts_time:9.44 duration:0 duration_time:0 stream_index:0
[mpeg @ 0x55557d1126f0] buffer underflow st=0 bufi=1530 size=2786
pts:856800 pts_time:9.52 dts:853200 dts_time:9.48 duration:0 duration_time:0 stream_index:0
[mpeg @ 0x55557d1126f0] buffer underflow st=0 bufi=776 size=2497
pts:860400 pts_time:9.56 dts:856800 dts_time:9.52 duration:0 duration_time:0 stream_index:0
[mpeg @ 0x55557d1126f0] buffer underflow st=0 bufi=311 size=9210
[mpeg @ 0x55557d1126f0] buffer underflow st=0 bufi=2352 size=9210
[mpeg @ 0x55557d1126f0] buffer underflow st=0 bufi=4393 size=9210
[mpeg @ 0x55557d1126f0] buffer underflow st=0 bufi=6434 size=9210
[mpeg @ 0x55557d1126f0] buffer underflow st=0 bufi=8475 size=9210
pts:864000 pts_time:9.6 dts:860400 dts_time:9.56 duration:0 duration_time:0 stream_index:0
[mpeg @ 0x55557d1126f0] buffer underflow st=0 bufi=1297 size=1985
pts:867600 pts_time:9.64 dts:864000 dts_time:9.6 duration:0 duration_time:0 stream_index:0
[mpeg @ 0x55557d1126f0] buffer underflow st=0 bufi=1344 size=2557
pts:871200 pts_time:9.68 dts:867600 dts_time:9.64 duration:0 duration_time:0 stream_index:0
[mpeg @ 0x55557d1126f0] buffer underflow st=0 bufi=819 size=3428
[mpeg @ 0x55557d1126f0] buffer underflow st=0 bufi=2860 size=3428
pts:874800 pts_time:9.72 dts:871200 dts_time:9.68 duration:0 duration_time:0 stream_index:0
[mpeg @ 0x55557d1126f0] buffer underflow st=0 bufi=1464 size=1590
pts:878400 pts_time:9.76 dts:874800 dts_time:9.72 duration:0 duration_time:0 stream_index:0
pts:882000 pts_time:9.8 dts:878400 dts_time:9.76 duration:0 duration_time:0 stream_index:0
[mpeg @ 0x55557d1126f0] buffer underflow st=0 bufi=1906 size=1921
[mpeg @ 0x55557d1126f0] buffer underflow st=0 bufi=2017 size=2857
pts:885600 pts_time:9.84 dts:882000 dts_time:9.8 duration:0 duration_time:0 stream_index:0
[mpeg @ 0x55557d1126f0] buffer underflow st=0 bufi=1192 size=2736
pts:889200 pts_time:9.88 dts:885600 dts_time:9.84 duration:0 duration_time:0 stream_index:0
[mpeg @ 0x55557d1126f0] buffer underflow st=0 bufi=488 size=1505
pts:892800 pts_time:9.92 dts:889200 dts_time:9.88 duration:0 duration_time:0 stream_index:0
[mpeg @ 0x55557d1126f0] buffer underflow st=0 bufi=1015 size=1788
[mpeg @ 0x55557d1126f0] buffer underflow st=0 bufi=1259 size=2168
pts:896400 pts_time:9.96 dts:892800 dts_time:9.92 duration:0 duration_time:0 stream_index:0
pts:900000 pts_time:10 dts:896400 dts_time:9.96 duration:0 duration_time:0 stream_index:0
